<svg width="637" height="531" viewBox="0 0 637 531" fill="none" xmlns="http://www.w3.org/2000/svg">
<path d="M470.3 415.361C466.696 424.052 445.08 427.412 437.466 422.304C405.698 405.081 406.86 358.15 406.86 358.15C406.86 358.086 406.839 358.022 406.828 357.958C406.455 354.876 408.129 352.146 410.571 351.847C413.013 351.549 415.285 353.82 415.647 356.902C415.647 356.966 415.647 357.03 415.658 357.094H415.669C415.669 357.03 415.647 356.966 415.637 356.902C415.264 353.82 416.938 351.09 419.38 350.791C421.822 350.493 424.093 352.764 424.456 355.846C424.456 355.91 424.456 355.974 424.467 356.038H424.477C424.477 355.974 424.456 355.91 424.445 355.846C424.072 352.764 425.746 350.034 428.188 349.736C430.63 349.437 432.902 351.709 433.264 354.79C433.264 354.854 433.264 354.918 433.275 354.982H433.286C433.286 354.918 433.264 354.854 433.254 354.79C432.88 351.709 434.555 348.979 436.997 348.68C439.428 348.392 441.71 350.653 442.073 353.735C442.073 353.799 442.073 353.863 442.083 353.927C442.083 353.927 441.881 388.627 470.257 415.372L470.3 415.361Z" fill="white"/>
<path d="M448.161 425.214C443.65 425.214 439.619 424.371 437.177 422.729C420.648 413.771 413.141 396.666 409.75 383.902C406.134 370.273 406.337 358.543 406.337 358.148C406.337 358.106 406.326 358.063 406.316 358.031C406.124 356.421 406.444 354.853 407.201 353.606C407.99 352.315 409.163 351.515 410.496 351.356C411.829 351.196 413.162 351.697 414.228 352.763C414.644 353.179 415.007 353.67 415.305 354.203C415.465 353.606 415.7 353.051 416.009 352.55C416.798 351.26 417.971 350.46 419.304 350.3C420.637 350.14 421.97 350.641 423.037 351.707C423.463 352.123 423.826 352.614 424.114 353.158C424.679 351.057 426.183 349.479 428.113 349.244C430.043 349.02 431.877 350.193 432.922 352.102C433.082 351.505 433.317 350.95 433.626 350.438C434.415 349.148 435.588 348.348 436.921 348.188C438.254 348.028 439.587 348.53 440.653 349.596C441.699 350.63 442.37 352.081 442.562 353.691C442.562 353.734 442.562 353.776 442.573 353.819C442.573 353.862 442.584 353.904 442.584 353.947C442.584 354.288 442.722 388.743 470.598 415.019C470.758 415.168 470.8 415.392 470.715 415.584C469.318 418.954 465.298 421.791 459.401 423.571C455.7 424.691 451.744 425.235 448.108 425.235L448.161 425.214ZM407.361 358.244C407.35 359.321 407.275 370.615 410.741 383.667C414.079 396.229 421.458 413.057 437.7 421.855C441.933 424.691 451.136 424.99 459.155 422.569C464.477 420.959 468.284 418.399 469.681 415.488C442.456 389.607 441.635 356.037 441.613 354C441.613 353.99 441.613 353.968 441.613 353.958V353.787C441.432 352.411 440.856 351.174 439.982 350.3C439.139 349.457 438.115 349.063 437.092 349.191C436.079 349.308 435.172 349.937 434.543 350.961C433.893 352.017 433.637 353.36 433.797 354.736L433.829 354.907C433.85 355.045 433.807 355.184 433.722 355.301C433.637 355.408 433.509 355.482 433.37 355.493C433.231 355.504 433.093 355.472 432.986 355.376C432.879 355.291 432.805 355.163 432.794 355.024V354.843C432.442 352.049 430.416 349.98 428.273 350.247C426.119 350.502 424.647 352.987 424.978 355.781L425.01 355.952C425.031 356.09 424.999 356.229 424.914 356.336C424.828 356.442 424.711 356.517 424.572 356.538C424.434 356.56 424.284 356.517 424.178 356.432C424.071 356.346 423.996 356.218 423.975 356.08V355.898C423.794 354.523 423.218 353.286 422.344 352.411C421.501 351.569 420.467 351.174 419.454 351.302C418.43 351.42 417.534 352.049 416.905 353.072C416.254 354.128 415.999 355.472 416.158 356.847L416.19 357.018C416.212 357.157 416.18 357.295 416.094 357.402C416.009 357.509 415.892 357.583 415.753 357.605C415.615 357.626 415.465 357.583 415.359 357.498C415.252 357.413 415.177 357.285 415.156 357.146V356.965C414.975 355.589 414.399 354.352 413.525 353.478C412.682 352.635 411.658 352.241 410.635 352.369C409.611 352.486 408.715 353.115 408.086 354.139C407.435 355.195 407.18 356.538 407.339 357.914L407.371 358.084C407.371 358.138 407.371 358.202 407.371 358.255L407.361 358.244Z" fill="black"/>
<path d="M574.826 418.282C578.75 409.719 600.473 407.16 607.895 412.545C639.012 430.908 636.144 477.776 636.144 477.776C636.144 477.84 636.165 477.904 636.165 477.968C636.421 481.061 634.651 483.737 632.209 483.94C629.767 484.142 627.57 481.796 627.314 478.704C627.314 478.64 627.314 478.576 627.314 478.512H627.303C627.303 478.576 627.325 478.64 627.325 478.704C627.58 481.796 625.81 484.473 623.368 484.676C620.926 484.878 618.729 482.532 618.473 479.44C618.473 479.376 618.473 479.312 618.473 479.248H618.463C618.463 479.312 618.484 479.376 618.484 479.44C618.74 482.532 616.97 485.209 614.528 485.411C612.086 485.614 609.889 483.268 609.633 480.176C609.633 480.112 609.633 480.048 609.633 479.984H609.622C609.622 480.048 609.644 480.112 609.644 480.176C609.9 483.268 608.13 485.945 605.687 486.147C603.245 486.35 601.049 484.004 600.793 480.911C600.793 480.847 600.793 480.783 600.793 480.719C600.793 480.719 602.254 446.051 574.879 418.282H574.826Z" fill="white"/>
<path d="M605.358 486.67C602.777 486.67 600.516 484.185 600.249 480.954C600.249 480.912 600.249 480.869 600.249 480.826C600.249 480.784 600.239 480.741 600.249 480.698C600.26 480.357 601.38 445.923 574.486 418.645C574.336 418.496 574.294 418.261 574.379 418.069C575.893 414.753 580.02 412.065 585.981 410.498C594.342 408.301 603.907 409.005 608.215 412.129C624.403 421.684 631.292 439.045 634.214 451.927C637.328 465.673 636.709 477.382 636.677 477.787C636.677 477.83 636.688 477.872 636.688 477.915C636.965 481.285 634.982 484.207 632.263 484.441C630.322 484.612 628.53 483.354 627.549 481.402C626.909 483.482 625.342 485.017 623.412 485.177C622.068 485.284 620.756 484.74 619.732 483.642C619.327 483.204 618.975 482.703 618.709 482.149C618.069 484.228 616.501 485.753 614.571 485.913C612.63 486.073 610.839 484.825 609.858 482.874C609.218 484.953 607.65 486.489 605.72 486.649C605.603 486.649 605.496 486.659 605.39 486.659L605.358 486.67ZM601.252 480.645C601.252 480.645 601.252 480.677 601.252 480.688V480.858C601.497 483.663 603.438 485.806 605.592 485.625C607.746 485.444 609.314 483.012 609.079 480.208L609.058 480.037C609.047 479.898 609.09 479.76 609.175 479.653C609.26 479.547 609.399 479.483 609.538 479.472C609.676 479.472 609.815 479.504 609.922 479.6C610.028 479.696 610.092 479.824 610.103 479.952V480.122C610.348 482.927 612.289 485.06 614.443 484.889C616.597 484.708 618.165 482.277 617.93 479.472L617.909 479.301C617.898 479.163 617.93 479.024 618.026 478.917C618.112 478.811 618.25 478.747 618.389 478.736C618.527 478.736 618.666 478.768 618.773 478.864C618.879 478.96 618.943 479.088 618.954 479.216V479.387C619.071 480.773 619.604 482.031 620.447 482.927C621.257 483.801 622.27 484.228 623.294 484.143C625.448 483.961 627.016 481.53 626.781 478.725L626.76 478.555C626.749 478.416 626.781 478.278 626.877 478.171C626.963 478.064 627.101 478 627.24 477.99C627.378 477.99 627.517 478.022 627.624 478.118C627.73 478.203 627.794 478.331 627.805 478.469V478.651C628.05 481.455 629.991 483.599 632.145 483.418C634.299 483.236 635.867 480.805 635.632 478L635.611 477.83C635.611 477.776 635.611 477.712 635.611 477.659C635.664 476.582 636.144 465.31 633.158 452.13C630.279 439.45 623.518 422.377 607.608 412.983C603.481 409.997 594.299 409.357 586.194 411.49C580.809 412.897 576.917 415.329 575.424 418.176C601.689 445.038 601.284 478.619 601.231 480.645H601.252Z" fill="black"/>
<path d="M527.31 461.461H488.888V525.284C488.888 525.338 488.888 525.402 488.888 525.455C488.888 528.238 491.042 530.488 493.686 530.488C496.331 530.488 498.485 528.238 498.485 525.455C498.485 525.402 498.485 525.338 498.485 525.284H498.507C498.507 525.338 498.507 525.402 498.507 525.455C498.507 528.238 500.661 530.488 503.305 530.488C505.95 530.488 508.104 528.238 508.104 525.455C508.104 525.402 508.104 525.338 508.104 525.284H508.125C508.125 525.338 508.125 525.402 508.125 525.455C508.125 528.238 510.28 530.488 512.924 530.488C515.569 530.488 517.723 528.238 517.723 525.455C517.723 525.402 517.723 525.338 517.723 525.284H517.744C517.744 525.338 517.744 525.402 517.744 525.455C517.744 528.238 519.898 530.488 522.543 530.488C525.188 530.488 527.342 528.238 527.342 525.455C527.342 525.402 527.342 525.338 527.342 525.284V461.461H527.31Z" fill="white"/>
<path d="M522.511 530.999C520.4 530.999 518.566 529.698 517.713 527.832C516.859 529.709 515.025 530.999 512.914 530.999C510.802 530.999 508.968 529.698 508.115 527.832C507.262 529.709 505.428 530.999 503.316 530.999C501.205 530.999 499.371 529.698 498.517 527.832C497.664 529.709 495.83 530.999 493.719 530.999C490.786 530.999 488.397 528.515 488.397 525.454C488.397 525.422 488.397 525.38 488.397 525.348C488.397 525.326 488.397 525.305 488.397 525.284V461.46C488.397 461.172 488.632 460.948 488.909 460.948H527.331C527.619 460.948 527.843 461.183 527.843 461.46V525.284C527.843 525.284 527.843 525.326 527.843 525.348C527.843 525.38 527.843 525.422 527.843 525.454C527.843 528.515 525.455 530.999 522.522 530.999H522.511ZM517.702 524.772C517.84 524.772 517.979 524.825 518.075 524.932C518.171 525.028 518.235 525.166 518.224 525.305V525.454C518.224 527.949 520.144 529.976 522.501 529.976C524.857 529.976 526.787 527.949 526.787 525.454V525.305C526.787 525.305 526.787 525.23 526.787 525.198V461.983H489.4V525.198C489.4 525.198 489.4 525.262 489.4 525.305V525.454C489.4 527.949 491.319 529.976 493.676 529.976C496.033 529.976 497.963 527.949 497.963 525.454V525.305C497.952 525.166 498.006 525.028 498.102 524.932C498.294 524.729 498.656 524.729 498.848 524.932C498.944 525.028 499.008 525.166 498.997 525.305V525.454C498.997 527.949 500.917 529.976 503.274 529.976C505.63 529.976 507.56 527.949 507.56 525.454V525.305C507.55 525.166 507.603 525.028 507.699 524.932C507.891 524.729 508.254 524.729 508.446 524.932C508.542 525.028 508.606 525.166 508.595 525.305V525.454C508.595 527.949 510.514 529.976 512.871 529.976C515.228 529.976 517.158 527.949 517.158 525.454V525.305C517.147 525.166 517.201 525.028 517.297 524.932C517.393 524.836 517.531 524.772 517.67 524.772H517.702Z" fill="black"/>
<path d="M574.826 461.461H536.404V525.284C536.404 525.338 536.404 525.402 536.404 525.455C536.404 528.238 538.558 530.488 541.203 530.488C543.847 530.488 546.001 528.238 546.001 525.455C546.001 525.402 546.001 525.338 546.001 525.284H546.023C546.023 525.338 546.023 525.402 546.023 525.455C546.023 528.238 548.177 530.488 550.821 530.488C553.466 530.488 555.62 528.238 555.62 525.455C555.62 525.402 555.62 525.338 555.62 525.284H555.642C555.642 525.338 555.642 525.402 555.642 525.455C555.642 528.238 557.796 530.488 560.44 530.488C563.085 530.488 565.239 528.238 565.239 525.455C565.239 525.402 565.239 525.338 565.239 525.284H565.26C565.26 525.338 565.26 525.402 565.26 525.455C565.26 528.238 567.414 530.488 570.059 530.488C572.704 530.488 574.858 528.238 574.858 525.455C574.858 525.402 574.858 525.338 574.858 525.284V461.461H574.826Z" fill="white"/>
<path d="M570.017 530.999C567.905 530.999 566.071 529.698 565.218 527.832C564.365 529.709 562.531 530.999 560.419 530.999C558.308 530.999 556.473 529.698 555.62 527.832C554.767 529.709 552.933 530.999 550.822 530.999C548.71 530.999 546.876 529.698 546.023 527.832C545.17 529.709 543.336 530.999 541.224 530.999C538.292 530.999 535.903 528.515 535.903 525.454C535.903 525.422 535.903 525.38 535.903 525.348C535.903 525.326 535.903 525.305 535.903 525.284V461.46C535.903 461.172 536.137 460.948 536.415 460.948H574.837C575.125 460.948 575.349 461.183 575.349 461.46V525.284C575.349 525.284 575.349 525.326 575.349 525.348C575.349 525.38 575.349 525.422 575.349 525.454C575.349 528.515 572.96 530.999 570.027 530.999H570.017ZM565.207 524.772C565.346 524.772 565.484 524.825 565.58 524.932C565.676 525.028 565.74 525.166 565.73 525.305V525.454C565.73 527.949 567.649 529.976 570.006 529.976C572.363 529.976 574.293 527.949 574.293 525.454V525.305C574.293 525.305 574.293 525.23 574.293 525.198V461.983H536.905V525.198C536.905 525.198 536.905 525.262 536.905 525.305V525.454C536.905 527.949 538.825 529.976 541.181 529.976C543.538 529.976 545.468 527.949 545.468 525.454V525.305C545.458 525.166 545.511 525.028 545.607 524.932C545.799 524.729 546.161 524.729 546.353 524.932C546.449 525.028 546.513 525.166 546.503 525.305V525.454C546.503 527.949 548.422 529.976 550.779 529.976C553.136 529.976 555.066 527.949 555.066 525.454V525.305C555.055 525.166 555.108 525.028 555.204 524.932C555.396 524.729 555.759 524.729 555.951 524.932C556.047 525.028 556.111 525.166 556.1 525.305V525.454C556.1 527.949 558.02 529.976 560.376 529.976C562.733 529.976 564.663 527.949 564.663 525.454V525.305C564.653 525.166 564.706 525.028 564.802 524.932C564.898 524.836 565.037 524.772 565.175 524.772H565.207Z" fill="black"/>
<path d="M531.999 477.2C576.412 477.2 612.416 441.196 612.416 396.784C612.416 352.371 576.412 316.367 531.999 316.367C487.587 316.367 451.583 352.371 451.583 396.784C451.583 441.196 487.587 477.2 531.999 477.2Z" fill="url(#paint0_radial_223_3111)"/>
<path d="M503.474 375.04C503.218 375.04 502.952 374.944 502.76 374.742C497.545 369.633 491.946 367.106 486.145 367.202C476.633 367.373 469.638 374.646 469.563 374.72C469.168 375.136 468.518 375.147 468.113 374.763C467.697 374.368 467.686 373.728 468.07 373.313C468.379 372.993 475.705 365.357 486.081 365.155C492.48 365.027 498.569 367.767 504.199 373.281C504.604 373.675 504.615 374.326 504.21 374.731C504.007 374.934 503.741 375.04 503.474 375.04Z" fill="white"/>
<path d="M562.435 375.04C562.179 375.04 561.912 374.944 561.721 374.742C556.506 369.633 550.918 367.106 545.106 367.202C535.594 367.373 528.599 374.646 528.524 374.72C528.129 375.136 527.479 375.147 527.074 374.763C526.658 374.368 526.647 373.728 527.031 373.313C527.34 372.993 534.666 365.357 545.042 365.155C551.441 365.027 557.53 367.767 563.16 373.281C563.565 373.675 563.576 374.326 563.171 374.731C562.968 374.934 562.702 375.04 562.435 375.04Z" fill="white"/>
<path d="M515.876 397.818C515.791 397.818 515.695 397.818 515.61 397.818C507.815 397.669 502.333 391.154 502.109 390.876C501.747 390.439 501.811 389.789 502.248 389.426C502.685 389.063 503.336 389.127 503.698 389.565C503.784 389.661 508.849 395.632 515.674 395.76C515.749 395.76 515.813 395.76 515.887 395.76C519.961 395.76 523.896 393.67 527.596 389.533C527.969 389.106 528.62 389.074 529.046 389.447C529.473 389.821 529.505 390.471 529.132 390.898C525.026 395.483 520.579 397.808 515.898 397.808L515.876 397.818Z" fill="white"/>
<path d="M49.511 99.0994C43.6459 91.7414 21.9449 94.4926 16.0371 101.509C-9.7269 126.836 4.36009 171.625 4.36009 171.625C4.36009 171.689 4.37074 171.753 4.38141 171.817C4.88261 174.877 7.23935 177.042 9.66005 176.647C12.0808 176.253 13.6377 173.459 13.1471 170.388C13.1471 170.324 13.1258 170.26 13.1045 170.206H13.1151C13.1151 170.27 13.1258 170.324 13.1365 170.388C13.6377 173.448 15.9944 175.613 18.4151 175.218C20.8358 174.824 22.3928 172.03 21.9022 168.959C21.9022 168.895 21.8809 168.831 21.8595 168.777H21.8702C21.8702 168.841 21.8809 168.895 21.8915 168.959C22.3927 172.019 24.7495 174.184 27.1702 173.789C29.5909 173.395 31.1478 170.601 30.6573 167.53C30.6573 167.466 30.6359 167.402 30.6146 167.348H30.6253C30.6253 167.412 30.6359 167.466 30.6466 167.53C31.1478 170.59 33.5045 172.755 35.9252 172.36C38.3459 171.966 39.9029 169.172 39.4123 166.101C39.4123 166.037 39.391 165.973 39.3697 165.919C39.3697 165.919 29.5909 132.627 49.4577 99.0781L49.511 99.0994Z" fill="white"/>
<path d="M9.10553 177.213C6.64217 177.213 4.3814 174.974 3.8802 171.902C3.8802 171.86 3.86956 171.817 3.86956 171.774C3.75225 171.401 0.318461 160.183 0.019872 146.074C-0.257389 132.873 2.23799 114.349 15.6745 101.137C19.0016 97.1698 27.842 94.2266 36.3518 94.2266C36.5117 94.2266 36.6717 94.2266 36.8317 94.2266C42.9954 94.3119 47.6448 95.9221 49.9162 98.7694C50.0442 98.94 50.0656 99.164 49.9589 99.3559C30.4333 132.339 39.8282 165.461 39.9242 165.792C39.9348 165.835 39.9455 165.877 39.9455 165.92C39.9455 165.963 39.9668 166.005 39.9668 166.048C40.2228 167.637 39.9668 169.226 39.263 170.505C38.5272 171.828 37.3862 172.67 36.0639 172.894C34.7309 173.107 33.3872 172.67 32.2675 171.646C31.8303 171.241 31.4464 170.772 31.1265 170.239C30.6466 172.361 29.207 174.003 27.2875 174.312C25.368 174.622 23.4805 173.523 22.3607 171.657C21.8809 173.779 20.4412 175.421 18.5217 175.741C16.6022 176.051 14.7147 174.952 13.595 173.086C13.4564 173.683 13.2431 174.259 12.9552 174.782C12.2194 176.104 11.0783 176.946 9.75601 177.17C9.54274 177.202 9.31881 177.224 9.10553 177.224V177.213ZM4.81862 171.401C4.81862 171.401 4.8613 171.508 4.87196 171.561L4.89328 171.732C5.34116 174.515 7.45261 176.499 9.58539 176.147C10.5985 175.987 11.4729 175.315 12.0594 174.28C12.6566 173.203 12.8699 171.849 12.6459 170.484L12.6139 170.313C12.5926 170.175 12.6139 170.036 12.6993 169.919C12.7846 169.802 12.9019 169.727 13.0298 169.706C13.1685 169.684 13.3178 169.706 13.4244 169.802C13.5417 169.887 13.6164 170.004 13.6377 170.143L13.659 170.324C14.1069 173.097 16.2183 175.08 18.3511 174.739C20.4839 174.398 21.8595 171.849 21.4116 169.076L21.3797 168.906C21.3583 168.767 21.3797 168.629 21.465 168.511C21.5396 168.394 21.6676 168.319 21.8062 168.298C21.9449 168.277 22.0942 168.298 22.2008 168.394C22.3074 168.479 22.3927 168.597 22.4141 168.735L22.4354 168.906C22.8833 171.689 24.9841 173.662 27.1275 173.321C29.2603 172.979 30.6359 170.431 30.188 167.658L30.1561 167.488C30.1347 167.349 30.156 167.21 30.2413 167.093C30.3267 166.976 30.444 166.901 30.572 166.88C30.7106 166.858 30.8599 166.88 30.9665 166.976C31.0838 167.061 31.1584 167.178 31.1798 167.317L31.2011 167.488C31.4251 168.853 32.0436 170.068 32.9607 170.911C33.8351 171.71 34.8802 172.073 35.8932 171.902C36.9063 171.742 37.7807 171.071 38.3673 170.036C38.9644 168.959 39.1777 167.605 38.9538 166.24L38.9218 166.069C38.9218 166.069 38.9218 166.037 38.9218 166.027C38.3779 164.064 29.8894 131.582 48.9032 99.1853C46.7597 96.7753 42.3982 95.3676 36.8317 95.293C28.4605 95.1756 19.6948 98.0123 16.4423 101.873C3.24039 114.861 0.787684 133.064 1.06495 146.064C1.34221 159.586 4.54138 170.431 4.83997 171.433L4.81862 171.401Z" fill="black"/>
<path d="M154.091 99.9093C156.352 109.048 168.584 117.259 185.518 111.693C219.504 99.4294 225.401 52.8495 225.401 52.8495C225.422 52.7855 225.443 52.7322 225.454 52.6683C226.286 49.6824 225.038 46.7178 222.671 46.0673C220.303 45.4168 217.723 47.3043 216.891 50.3009C216.87 50.3649 216.859 50.4288 216.848 50.4821H216.838C216.859 50.4182 216.88 50.3542 216.891 50.3009C217.723 47.315 216.475 44.3504 214.108 43.6999C211.74 43.0494 209.16 44.9369 208.328 47.9335C208.307 47.9975 208.296 48.0614 208.285 48.1147H208.275C208.296 48.0508 208.317 47.9868 208.328 47.9335C209.16 44.9476 207.912 41.983 205.545 41.3325C203.177 40.682 200.597 42.5695 199.765 45.5661C199.743 45.6301 199.733 45.694 199.722 45.7474H199.711C199.733 45.6834 199.754 45.6194 199.765 45.5661C200.597 42.5802 199.349 39.6156 196.982 38.9651C194.614 38.3146 192.034 40.2022 191.202 43.1987C191.18 43.2627 191.17 43.3267 191.159 43.38C191.159 43.38 186.147 77.7177 154.091 99.9093Z" fill="white"/>
<path d="M174.81 114.008C170.342 114.008 166.172 113.005 162.579 111.011C157.961 108.463 154.687 104.453 153.6 100.027C153.546 99.8248 153.632 99.6008 153.802 99.4835C185.304 77.6759 190.603 43.6473 190.657 43.3061C190.657 43.2634 190.678 43.2208 190.689 43.1781C190.689 43.1355 190.71 43.0928 190.721 43.0609C191.627 39.7977 194.496 37.7395 197.13 38.4754C198.996 38.9979 200.254 40.7788 200.5 42.9435C200.873 42.453 201.299 42.0264 201.79 41.6745C203.006 40.7788 204.403 40.4908 205.693 40.8427C206.994 41.2053 208.028 42.1651 208.615 43.5621C208.849 44.1059 208.999 44.6924 209.063 45.3109C209.436 44.8204 209.862 44.3938 210.342 44.0419C211.558 43.1461 212.955 42.8582 214.245 43.2101C215.546 43.5727 216.581 44.5325 217.167 45.9294C217.402 46.4733 217.551 47.0705 217.615 47.6783C218.937 45.9508 220.932 45.0656 222.798 45.5775C225.432 46.3027 226.839 49.5551 225.933 52.8076C225.922 52.8503 225.912 52.893 225.89 52.925C225.837 53.3302 224.269 64.9538 218.66 77.8785C213.403 89.9927 203.4 105.775 185.677 112.174C181.944 113.4 178.276 114.008 174.789 114.008H174.81ZM154.688 100.123C155.797 104.144 158.836 107.769 163.08 110.115C169.222 113.517 177.135 113.901 185.357 111.203C202.728 104.933 212.55 89.3955 217.732 77.4732C223.128 65.0605 224.739 53.8847 224.877 52.861C224.877 52.8077 224.877 52.7543 224.899 52.701L224.952 52.5304C225.698 49.8218 224.611 47.1451 222.531 46.5586C220.441 45.9828 218.138 47.721 217.381 50.4296L217.338 50.6002C217.306 50.7389 217.221 50.8455 217.103 50.9201C216.986 50.9948 216.837 51.0054 216.709 50.9734C216.57 50.9415 216.453 50.8455 216.389 50.7282C216.325 50.6109 216.303 50.4616 216.335 50.3336L216.389 50.163C216.762 48.83 216.698 47.465 216.218 46.324C215.76 45.2256 214.96 44.4685 213.968 44.1912C212.976 43.914 211.91 44.1592 210.94 44.8631C209.937 45.5989 209.191 46.7292 208.817 48.0622L208.775 48.2328C208.743 48.3715 208.657 48.4781 208.54 48.5528C208.423 48.6274 208.274 48.638 208.146 48.6061C208.007 48.5741 207.89 48.4781 207.826 48.3608C207.762 48.2435 207.74 48.0942 207.772 47.9663L207.826 47.7956C208.199 46.4626 208.135 45.0977 207.655 43.9566C207.197 42.8582 206.397 42.1011 205.405 41.8238C204.413 41.5466 203.347 41.7918 202.376 42.4957C201.374 43.2315 200.628 44.3618 200.254 45.6948L200.212 45.8655C200.18 46.0041 200.094 46.1107 199.977 46.1854C199.86 46.26 199.71 46.2707 199.582 46.2387C199.444 46.2067 199.327 46.1107 199.263 45.9934C199.199 45.8761 199.177 45.7268 199.209 45.5989L199.263 45.4282C200.009 42.7196 198.921 40.043 196.842 39.4564C194.752 38.8806 192.448 40.6188 191.691 43.3274L191.649 43.4981C191.649 43.4981 191.649 43.53 191.638 43.5407C191.307 45.5562 185.453 78.6143 154.655 100.123H154.688Z" fill="black"/>
<path d="M94.4387 145.093H56.0166V208.916C56.0166 208.97 56.0166 209.034 56.0166 209.087C56.0166 211.87 58.1707 214.12 60.8154 214.12C63.46 214.12 65.6141 211.87 65.6141 209.087C65.6141 209.034 65.6141 208.97 65.6141 208.916H65.6354C65.6354 208.97 65.6354 209.034 65.6354 209.087C65.6354 211.87 67.7895 214.12 70.4342 214.12C73.0788 214.12 75.2329 211.87 75.2329 209.087C75.2329 209.034 75.2329 208.97 75.2329 208.916H75.2543C75.2543 208.97 75.2543 209.034 75.2543 209.087C75.2543 211.87 77.4084 214.12 80.053 214.12C82.6977 214.12 84.8518 211.87 84.8518 209.087C84.8518 209.034 84.8518 208.97 84.8518 208.916H84.8731C84.8731 208.97 84.8731 209.034 84.8731 209.087C84.8731 211.87 87.0272 214.12 89.6719 214.12C92.3165 214.12 94.4706 211.87 94.4706 209.087C94.4706 209.034 94.4706 208.97 94.4706 208.916V145.093H94.4387Z" fill="white"/>
<path d="M89.6392 214.632C87.5278 214.632 85.6935 213.331 84.8404 211.465C83.9873 213.342 82.1531 214.632 80.0417 214.632C77.9302 214.632 76.096 213.331 75.2429 211.465C74.3898 213.342 72.5556 214.632 70.4442 214.632C68.3327 214.632 66.4985 213.331 65.6454 211.465C64.7923 213.342 62.9581 214.632 60.8467 214.632C57.9141 214.632 55.5254 212.148 55.5254 209.087C55.5254 209.055 55.5254 209.012 55.5254 208.98C55.5254 208.959 55.5254 208.938 55.5254 208.916V145.093C55.5254 144.805 55.76 144.581 56.0372 144.581H94.4593C94.7472 144.581 94.9712 144.816 94.9712 145.093V208.916C94.9712 208.916 94.9712 208.959 94.9712 208.98C94.9712 209.012 94.9712 209.055 94.9712 209.087C94.9712 212.148 92.5824 214.632 89.6498 214.632H89.6392ZM84.8298 208.394C84.9684 208.394 85.107 208.447 85.203 208.554C85.299 208.65 85.363 208.788 85.3523 208.927V209.076C85.3523 211.572 87.2718 213.598 89.6285 213.598C91.9853 213.598 93.9154 211.572 93.9154 209.076V208.927C93.9154 208.927 93.9154 208.852 93.9154 208.82V145.605H56.5278V208.82C56.5278 208.82 56.5278 208.895 56.5278 208.927V209.076C56.5278 211.572 58.4473 213.598 60.804 213.598C63.1607 213.598 65.0909 211.572 65.0909 209.076V208.927C65.0802 208.788 65.1336 208.65 65.2295 208.554C65.4215 208.351 65.784 208.351 65.976 208.554C66.072 208.65 66.136 208.788 66.1253 208.927V209.076C66.1253 211.572 68.0448 213.598 70.4015 213.598C72.7582 213.598 74.6884 211.572 74.6884 209.076V208.927C74.6777 208.788 74.7311 208.65 74.827 208.554C75.019 208.351 75.3816 208.351 75.5735 208.554C75.6695 208.65 75.7335 208.788 75.7228 208.927V209.076C75.7228 211.572 77.6423 213.598 79.999 213.598C82.3557 213.598 84.2859 211.572 84.2859 209.076V208.927C84.2753 208.788 84.3286 208.65 84.4246 208.554C84.5205 208.458 84.6591 208.394 84.7978 208.394H84.8298Z" fill="black"/>
<path d="M141.946 145.093H103.524V208.916C103.524 208.97 103.524 209.034 103.524 209.087C103.524 211.87 105.678 214.12 108.323 214.12C110.967 214.12 113.121 211.87 113.121 209.087C113.121 209.034 113.121 208.97 113.121 208.916H113.143C113.143 208.97 113.143 209.034 113.143 209.087C113.143 211.87 115.297 214.12 117.942 214.12C120.586 214.12 122.74 211.87 122.74 209.087C122.74 209.034 122.74 208.97 122.74 208.916H122.762C122.762 208.97 122.762 209.034 122.762 209.087C122.762 211.87 124.916 214.12 127.56 214.12C130.205 214.12 132.359 211.87 132.359 209.087C132.359 209.034 132.359 208.97 132.359 208.916H132.38C132.38 208.97 132.38 209.034 132.38 209.087C132.38 211.87 134.535 214.12 137.179 214.12C139.824 214.12 141.978 211.87 141.978 209.087C141.978 209.034 141.978 208.97 141.978 208.916V145.093H141.946Z" fill="white"/>
<path d="M137.149 214.632C135.038 214.632 133.203 213.331 132.35 211.465C131.497 213.342 129.663 214.632 127.551 214.632C125.44 214.632 123.606 213.331 122.753 211.465C121.9 213.342 120.065 214.632 117.954 214.632C115.842 214.632 114.008 213.331 113.155 211.465C112.302 213.342 110.468 214.632 108.356 214.632C105.424 214.632 103.035 212.148 103.035 209.087C103.035 209.055 103.035 209.012 103.035 208.98C103.035 208.959 103.035 208.938 103.035 208.916V145.093C103.035 144.805 103.27 144.581 103.547 144.581H141.969C142.257 144.581 142.481 144.816 142.481 145.093V208.916C142.481 208.916 142.481 208.959 142.481 208.98C142.481 209.012 142.481 209.055 142.481 209.087C142.481 212.148 140.092 214.632 137.16 214.632H137.149ZM132.34 208.394C132.478 208.394 132.617 208.447 132.713 208.554C132.809 208.65 132.873 208.788 132.862 208.927V209.076C132.862 211.572 134.782 213.598 137.138 213.598C139.495 213.598 141.425 211.572 141.425 209.076V208.927C141.425 208.927 141.425 208.852 141.425 208.82V145.605H104.038V208.82C104.038 208.82 104.038 208.895 104.038 208.927V209.076C104.038 211.572 105.957 213.598 108.314 213.598C110.67 213.598 112.601 211.572 112.601 209.076V208.927C112.59 208.788 112.643 208.65 112.739 208.554C112.931 208.351 113.294 208.351 113.486 208.554C113.582 208.65 113.646 208.788 113.635 208.927V209.076C113.635 211.572 115.555 213.598 117.911 213.598C120.268 213.598 122.198 211.572 122.198 209.076V208.927C122.187 208.788 122.241 208.65 122.337 208.554C122.529 208.351 122.891 208.351 123.083 208.554C123.179 208.65 123.243 208.788 123.233 208.927V209.076C123.233 211.572 125.152 213.598 127.509 213.598C129.865 213.598 131.796 211.572 131.796 209.076V208.927C131.785 208.788 131.838 208.65 131.934 208.554C132.03 208.458 132.169 208.394 132.308 208.394H132.34Z" fill="black"/>
<path d="M99.1308 160.833C143.544 160.833 179.547 124.829 179.547 80.4164C179.547 36.0037 143.544 0 99.1308 0C54.718 0 18.7144 36.0037 18.7144 80.4164C18.7144 124.829 54.718 160.833 99.1308 160.833Z" fill="url(#paint1_radial_223_3111)"/>
<path d="M101.901 103.61C101.645 103.61 101.379 103.514 101.187 103.312C95.9722 98.2035 90.3843 95.6548 84.5725 95.7721C75.0603 95.9428 68.0648 103.216 67.9902 103.29C67.5956 103.706 66.9451 103.717 66.5398 103.333C66.124 102.938 66.1133 102.298 66.4972 101.883C66.8064 101.563 74.1326 93.9273 84.5085 93.7247C90.9069 93.6181 96.996 96.3373 102.627 101.851C103.032 102.245 103.042 102.896 102.637 103.301C102.435 103.503 102.168 103.61 101.901 103.61Z" fill="white"/>
<path d="M160.863 103.61C160.607 103.61 160.341 103.514 160.149 103.312C154.934 98.2038 149.346 95.6658 143.534 95.7724C134.022 95.9431 127.027 103.216 126.952 103.29C126.558 103.706 125.907 103.717 125.502 103.333C125.086 102.939 125.075 102.299 125.459 101.883C125.768 101.563 133.094 93.9276 143.47 93.725C149.858 93.597 155.958 96.3376 161.588 101.851C161.994 102.245 162.004 102.896 161.599 103.301C161.396 103.504 161.13 103.61 160.863 103.61Z" fill="white"/>
<path d="M114.305 126.389C114.219 126.389 114.123 126.389 114.038 126.389C106.243 126.24 100.762 119.724 100.538 119.447C100.175 119.009 100.239 118.359 100.676 117.996C101.114 117.634 101.764 117.698 102.127 118.135C102.212 118.231 107.277 124.203 114.102 124.331C118.261 124.384 122.26 122.315 126.024 118.103C126.398 117.676 127.048 117.644 127.475 118.018C127.901 118.391 127.933 119.041 127.56 119.468C123.454 124.053 119.008 126.378 114.326 126.378L114.305 126.389Z" fill="white"/>
<path d="M320.859 25.4116C294.714 16.962 266.715 31.4255 258.321 57.712C256.478 63.4672 255.738 69.3087 255.963 75.0208L241.384 95.3365C238.994 98.6668 241.084 103.344 245.147 103.754L268.419 106.136C274.144 112.645 281.615 117.743 290.437 120.588C316.582 129.038 344.582 114.575 352.975 88.288C361.38 62.0015 346.994 33.8504 320.849 25.4116H320.859Z" fill="#FE316E"/>
<path d="M261.469 137.234C248.423 122.301 225.807 120.834 210.965 133.961C207.712 136.83 205.102 140.168 203.148 143.782L186.68 150.924C183.986 152.093 183.553 155.76 185.909 157.524L199.419 167.643C200.56 173.797 203.307 179.728 207.712 184.766C220.757 199.699 243.373 201.166 258.215 188.039C273.057 174.913 274.514 152.157 261.469 137.224V137.234Z" fill="#FE316E"/>
<path d="M361.579 221C387.095 221 407.784 242.266 407.784 268.495C407.784 274.235 406.795 279.738 404.976 284.841L412.128 307.481C413.295 311.189 410.13 314.811 406.417 314L385.15 309.351C378.25 313.567 370.193 316 361.579 316C336.063 316 315.374 294.734 315.374 268.505C315.374 242.277 336.063 221.011 361.579 221.011V221Z" fill="#FFD4E1"/>
<path d="M472.515 229.631C491.797 235.597 502.654 256.307 496.778 275.873C495.493 280.161 493.503 284.031 490.997 287.41L491.323 305.971C491.376 309.008 488.164 310.975 485.552 309.499L470.525 301.053C464.365 302.582 457.741 302.517 451.233 300.497C431.951 294.531 421.094 273.82 426.97 254.254C432.846 234.677 453.244 223.654 472.515 229.62V229.631Z" fill="#FFD4E1"/>
<defs>
<radialGradient id="paint0_radial_223_3111" cx="0" cy="0" r="1" gradientUnits="userSpaceOnUse" gradientTransform="translate(531.999 396.784) scale(80.4164)">
<stop stop-color="#FE316E"/>
<stop offset="1" stop-color="#FFD4E1"/>
</radialGradient>
<radialGradient id="paint1_radial_223_3111" cx="0" cy="0" r="1" gradientUnits="userSpaceOnUse" gradientTransform="translate(99.1308 80.4164) scale(80.4165 80.4164)">
<stop stop-color="#FE316E"/>
<stop offset="1" stop-color="#FFD4E1"/>
</radialGradient>
</defs>
</svg>
