<svg width="48" height="48" viewBox="0 0 48 48" fill="none" xmlns="http://www.w3.org/2000/svg">
<circle cx="24" cy="24" r="24" fill="#FFD4E1"/>
<path d="M24.3333 39.3261C27.366 39.3261 30.3305 38.4368 32.8521 36.7707C35.3736 35.1045 37.3389 32.7364 38.4995 29.9657C39.66 27.195 39.9637 24.1462 39.372 21.2049C38.7804 18.2635 37.32 15.5617 35.1756 13.4412C33.0312 11.3206 30.2991 9.87643 27.3247 9.29136C24.3503 8.70629 21.2673 9.00657 18.4655 10.1542C15.6637 11.3019 13.269 13.2454 11.5841 15.7389C9.89928 18.2325 9 21.1641 9 24.163C9 26.5891 9.57585 28.8804 10.6015 30.914C11.3733 32.4488 10.2999 34.5194 9.89104 36.0307C9.80045 36.3649 9.80043 36.7168 9.89099 37.0511C9.98155 37.3853 10.1595 37.6901 10.4069 37.9348C10.6544 38.1795 10.9626 38.3554 11.3006 38.445C11.6386 38.5345 11.9944 38.5345 12.3324 38.4449C13.8607 38.0406 15.9545 36.9792 17.5066 37.7441C19.6281 38.7858 21.9647 39.3272 24.3333 39.3261Z" stroke="#FE316E" stroke-width="3" stroke-linecap="round" stroke-linejoin="round"/>
</svg>
