<svg width="52" height="52" viewBox="0 0 52 52" fill="none" xmlns="http://www.w3.org/2000/svg">
<g filter="url(#filter0_d_126_1498)">
<circle cx="26" cy="24" r="24" fill="url(#paint0_radial_126_1498)"/>
</g>
<path d="M16.192 29.03C14.896 29.03 13.828 28.63 12.988 27.83C12.46 27.33 12.092 26.644 11.884 25.772H14.362C14.374 25.796 14.386 25.826 14.398 25.862C14.422 25.958 14.48 26.072 14.572 26.204C14.664 26.332 14.838 26.448 15.094 26.552C15.35 26.656 15.732 26.712 16.24 26.72C16.772 26.716 17.16 26.646 17.404 26.51C17.652 26.37 17.776 26.23 17.776 26.09C17.776 26.046 17.766 26 17.746 25.952C17.662 25.756 17.336 25.594 16.768 25.466C16.408 25.402 15.994 25.356 15.526 25.328C15.018 25.304 14.514 25.25 14.014 25.166C13.514 25.078 13.086 24.91 12.73 24.662C12.374 24.414 12.156 24.032 12.076 23.516C12.064 23.408 12.058 23.304 12.058 23.204C12.058 22.684 12.204 22.236 12.496 21.86C12.844 21.412 13.32 21.072 13.924 20.84C14.528 20.608 15.014 20.488 15.382 20.48C15.754 20.472 15.958 20.468 15.994 20.468C16.654 20.468 17.284 20.57 17.884 20.774C18.52 20.986 19.042 21.314 19.45 21.758C19.858 22.198 20.074 22.758 20.098 23.438H17.464C17.436 23.274 17.31 23.116 17.086 22.964C16.866 22.812 16.646 22.72 16.426 22.688C16.206 22.656 16.052 22.64 15.964 22.64C15.684 22.64 15.386 22.696 15.07 22.808C14.766 22.936 14.614 23.08 14.614 23.24C14.614 23.268 14.618 23.296 14.626 23.324C14.69 23.516 14.934 23.66 15.358 23.756C15.694 23.816 16.076 23.864 16.504 23.9C17 23.94 17.5 24.006 18.004 24.098C18.512 24.186 18.962 24.344 19.354 24.572C19.75 24.8 20.028 25.142 20.188 25.598C20.26 25.834 20.296 26.062 20.296 26.282C20.296 26.61 20.216 26.918 20.056 27.206C19.784 27.682 19.366 28.074 18.802 28.382C18.242 28.69 17.726 28.876 17.254 28.94C16.782 29 16.428 29.03 16.192 29.03ZM25.6633 28.994C24.8593 28.994 24.1253 28.802 23.4613 28.418C22.7973 28.034 22.2673 27.52 21.8713 26.876C21.4793 26.232 21.2833 25.518 21.2833 24.734C21.2833 23.95 21.4793 23.236 21.8713 22.592C22.2673 21.948 22.7973 21.436 23.4613 21.056C24.1253 20.672 24.8593 20.48 25.6633 20.48C26.4713 20.48 27.2053 20.672 27.8653 21.056C28.5293 21.436 29.0573 21.948 29.4493 22.592C29.8453 23.236 30.0433 23.95 30.0433 24.734C30.0433 25.518 29.8453 26.232 29.4493 26.876C29.0573 27.52 28.5293 28.034 27.8653 28.418C27.2053 28.802 26.4713 28.994 25.6633 28.994ZM25.6393 26.54C25.7833 26.54 25.9333 26.53 26.0893 26.51C26.6693 26.406 27.0673 26.182 27.2833 25.838C27.4993 25.49 27.6073 25.148 27.6073 24.812C27.6073 24.708 27.5993 24.602 27.5833 24.494C27.5113 24.038 27.3053 23.672 26.9653 23.396C26.6253 23.12 26.2093 22.982 25.7173 22.982C25.6053 22.982 25.4893 22.988 25.3693 23C24.7333 23.104 24.2953 23.332 24.0553 23.684C23.8193 24.036 23.7013 24.388 23.7013 24.74C23.7013 24.836 23.7093 24.936 23.7253 25.04C23.8013 25.504 24.0173 25.87 24.3733 26.138C24.7293 26.406 25.1513 26.54 25.6393 26.54ZM35.1647 29.03C33.8687 29.03 32.8007 28.63 31.9607 27.83C31.4327 27.33 31.0647 26.644 30.8567 25.772H33.3347C33.3467 25.796 33.3587 25.826 33.3707 25.862C33.3947 25.958 33.4527 26.072 33.5447 26.204C33.6367 26.332 33.8107 26.448 34.0667 26.552C34.3227 26.656 34.7047 26.712 35.2127 26.72C35.7447 26.716 36.1327 26.646 36.3767 26.51C36.6247 26.37 36.7487 26.23 36.7487 26.09C36.7487 26.046 36.7387 26 36.7187 25.952C36.6347 25.756 36.3087 25.594 35.7407 25.466C35.3807 25.402 34.9667 25.356 34.4987 25.328C33.9907 25.304 33.4867 25.25 32.9867 25.166C32.4867 25.078 32.0587 24.91 31.7027 24.662C31.3467 24.414 31.1287 24.032 31.0487 23.516C31.0367 23.408 31.0307 23.304 31.0307 23.204C31.0307 22.684 31.1767 22.236 31.4687 21.86C31.8167 21.412 32.2927 21.072 32.8967 20.84C33.5007 20.608 33.9867 20.488 34.3547 20.48C34.7267 20.472 34.9307 20.468 34.9667 20.468C35.6267 20.468 36.2567 20.57 36.8567 20.774C37.4927 20.986 38.0147 21.314 38.4227 21.758C38.8307 22.198 39.0467 22.758 39.0707 23.438H36.4367C36.4087 23.274 36.2827 23.116 36.0587 22.964C35.8387 22.812 35.6187 22.72 35.3987 22.688C35.1787 22.656 35.0247 22.64 34.9367 22.64C34.6567 22.64 34.3587 22.696 34.0427 22.808C33.7387 22.936 33.5867 23.08 33.5867 23.24C33.5867 23.268 33.5907 23.296 33.5987 23.324C33.6627 23.516 33.9067 23.66 34.3307 23.756C34.6667 23.816 35.0487 23.864 35.4767 23.9C35.9727 23.94 36.4727 24.006 36.9767 24.098C37.4847 24.186 37.9347 24.344 38.3267 24.572C38.7227 24.8 39.0007 25.142 39.1607 25.598C39.2327 25.834 39.2687 26.062 39.2687 26.282C39.2687 26.61 39.1887 26.918 39.0287 27.206C38.7567 27.682 38.3387 28.074 37.7747 28.382C37.2147 28.69 36.6987 28.876 36.2267 28.94C35.7547 29 35.4007 29.03 35.1647 29.03Z" fill="white"/>
<defs>
<filter id="filter0_d_126_1498" x="0" y="0" width="52" height="52" filterUnits="userSpaceOnUse" color-interpolation-filters="sRGB">
<feFlood flood-opacity="0" result="BackgroundImageFix"/>
<feColorMatrix in="SourceAlpha" type="matrix" values="0 0 0 0 0 0 0 0 0 0 0 0 0 0 0 0 0 0 127 0" result="hardAlpha"/>
<feOffset dy="2"/>
<feGaussianBlur stdDeviation="1"/>
<feComposite in2="hardAlpha" operator="out"/>
<feColorMatrix type="matrix" values="0 0 0 0 0.996078 0 0 0 0 0.192157 0 0 0 0 0.431373 0 0 0 0.4 0"/>
<feBlend mode="normal" in2="BackgroundImageFix" result="effect1_dropShadow_126_1498"/>
<feBlend mode="normal" in="SourceGraphic" in2="effect1_dropShadow_126_1498" result="shape"/>
</filter>
<radialGradient id="paint0_radial_126_1498" cx="0" cy="0" r="1" gradientUnits="userSpaceOnUse" gradientTransform="translate(26 24) rotate(47.9508) scale(22.3958)">
<stop stop-color="#FE316E"/>
<stop offset="1" stop-color="#FFD4E1"/>
</radialGradient>
</defs>
</svg>
