<svg width="48" height="48" viewBox="0 0 48 48" fill="none" xmlns="http://www.w3.org/2000/svg">
<circle cx="24" cy="24" r="24" fill="#FFD4E1"/>
<path d="M15 39C17.4853 39 19.5 36.9853 19.5 34.5C19.5 32.0147 17.4853 30 15 30C12.5147 30 10.5 32.0147 10.5 34.5C10.5 36.9853 12.5147 39 15 39Z" stroke="#FE316E" stroke-width="3" stroke-linecap="round" stroke-linejoin="round"/>
<path d="M19.5 34.5H32.25C33.6424 34.5 34.9777 33.9469 35.9623 32.9623C36.9469 31.9777 37.5 30.6424 37.5 29.25C37.5 27.8576 36.9469 26.5223 35.9623 25.5377C34.9777 24.5531 33.6424 24 32.25 24H15.75C14.3576 24 13.0223 23.4469 12.0377 22.4623C11.0531 21.4777 10.5 20.1424 10.5 18.75C10.5 17.3576 11.0531 16.0223 12.0377 15.0377C13.0223 14.0531 14.3576 13.5 15.75 13.5H28.5" stroke="#FE316E" stroke-width="3" stroke-linecap="round" stroke-linejoin="round"/>
<path d="M33 18C35.4853 18 37.5 15.9853 37.5 13.5C37.5 11.0147 35.4853 9 33 9C30.5147 9 28.5 11.0147 28.5 13.5C28.5 15.9853 30.5147 18 33 18Z" stroke="#FE316E" stroke-width="3" stroke-linecap="round" stroke-linejoin="round"/>
</svg>
