<svg width="70" height="70" viewBox="0 0 70 70" fill="none" xmlns="http://www.w3.org/2000/svg">
<path d="M35 0C54.33 0 70 15.67 70 35C70 54.33 54.33 70 35 70C15.67 70 0 54.33 0 35C0 15.67 15.67 0 35 0ZM36.0596 21.2139C35.2318 21.0271 30.6819 20.9262 29.3164 21.0645C27.4037 21.2581 26.3763 21.6784 25.8008 22.5029C25.4315 23.0321 25.4822 23.1278 26.249 23.3438C27.0948 23.5818 27.679 24.041 27.9814 24.7061C28.5858 26.0353 28.8336 29.4498 28.54 32.4102C28.2865 34.9667 27.9302 36.0158 27.2695 36.1514C26.2684 36.3566 24.9232 35.0406 23.5596 32.5215C22.9043 31.3111 20.2768 25.653 19.8975 24.6357C19.4244 23.367 19.1604 22.9762 18.5488 22.6377L18.0195 22.3447L14.1611 22.3457C11.6877 22.346 10.1631 22.3875 9.91309 22.4619C9.69862 22.5256 9.39784 22.7047 9.24512 22.8604C9.04951 23.0598 8.96089 23.2707 9.01562 23.6641C9.02009 23.7796 9.02738 23.8315 9.04004 23.8047C9.14123 24.3094 9.43896 25.0842 9.98926 26.3936C12.5155 32.4044 15.1447 37.4072 17.9932 41.623C20.5437 45.3977 21.8168 46.8151 24.2949 48.6387C26.4019 50.1892 27.8084 50.9219 29.7549 51.4854C31.0734 51.867 32.4296 51.993 34.7764 51.9512C36.6936 51.9171 36.8544 51.899 37.291 51.6641C37.9776 51.2945 38.1118 50.9323 38.2305 49.1299C38.37 47.0105 38.6939 46.0154 39.5078 45.2119C40.1739 44.5542 40.8267 44.69 41.9189 45.7119C42.2457 46.0176 42.8986 46.7469 43.3691 47.333C44.7316 49.0303 46.3294 50.7176 46.9824 51.1494C47.3137 51.3686 47.8401 51.6538 48.1523 51.7832C48.7089 52.0138 48.7958 52.0179 52.6689 51.9854C54.8407 51.967 56.901 51.9099 57.2471 51.8584C58.9986 51.598 59.344 50.2209 58.1709 48.1787C57.3239 46.7044 56.5687 45.766 53.8418 42.8037C50.9227 39.6326 50.7644 39.3971 50.835 38.3311C50.8899 37.501 51.1199 37.1032 53.7969 33.2139C54.9869 31.4849 56.3387 29.4508 56.8008 28.6943C58.1561 26.4758 59.0217 24.3416 59 23.2686C58.9948 23.0149 58.975 22.9796 58.9219 23.127C58.8575 23.3056 58.8416 23.3002 58.7432 23.0645C58.6837 22.9217 58.4659 22.7134 58.2598 22.6016C57.9066 22.41 57.6142 22.3984 53.2051 22.3984C50.631 22.3984 48.3549 22.4285 48.1475 22.4658C47.5654 22.5707 47.281 22.9826 46.625 24.6709C45.2264 28.2704 43.2428 32.0719 41.624 34.2529C40.8857 35.2476 39.9271 36.0908 39.5361 36.0908C39.0846 36.0906 38.5869 35.5784 38.3662 34.8867C38.176 34.2902 38.1457 32.4546 38.2227 26.1807C38.2502 23.9229 38.2294 23.3716 38.1006 22.9189C37.813 21.908 37.3239 21.4993 36.0596 21.2139ZM9.05566 23.2773C9.07882 23.4093 9.07885 23.625 9.05566 23.7568C9.0513 23.7815 9.044 23.7963 9.04004 23.8047C9.03014 23.7553 9.02181 23.7085 9.01562 23.6641C9.01402 23.6227 9.01367 23.5731 9.01367 23.5166C9.01368 23.253 9.03237 23.1455 9.05566 23.2773Z" fill="white"/>
</svg>
