<svg width="70" height="70" viewBox="0 0 70 70" fill="none" xmlns="http://www.w3.org/2000/svg">
<g clip-path="url(#clip0_103_1540)">
<path d="M36.0498 0C36.2248 14.1896 37.2019 22.1667 42.5248 27.475C47.8477 32.7979 55.8248 33.7604 70.0144 33.95C69.4602 15.4438 54.5561 0.539583 36.0498 0Z" fill="white"/>
<path d="M27.4896 27.475C32.8125 22.1667 33.775 14.1896 33.95 0C15.4438 0.539583 0.539583 15.4438 0 33.95C14.1896 33.775 22.1667 32.7979 27.4896 27.475Z" fill="white"/>
<path d="M-6.51041e-05 36.0498C0.539518 54.5561 15.4437 69.4602 33.9499 69.9998C33.7749 55.8102 32.7979 47.8331 27.4749 42.5248C22.152 37.2019 14.1749 36.2394 -0.0146484 36.0498H-6.51041e-05Z" fill="white"/>
<path d="M69.9997 36.0498C55.8102 36.2248 47.8331 37.2019 42.5102 42.5248C37.1872 47.8477 36.2247 55.8248 36.0352 69.9998C54.5414 69.4602 69.4456 54.5561 69.9852 36.0498H69.9997Z" fill="white"/>
</g>
<defs>
<clipPath id="clip0_103_1540">
<rect width="70" height="70" fill="white"/>
</clipPath>
</defs>
</svg>
