<svg width="48" height="48" viewBox="0 0 48 48" fill="none" xmlns="http://www.w3.org/2000/svg">
<circle cx="24" cy="24" r="24" fill="#FFD4E1"/>
<path d="M30.1704 20.3445C30.1704 21.8988 29.5635 23.3893 28.4833 24.4883C27.4031 25.5873 25.938 26.2047 24.4104 26.2047C22.8827 26.2047 21.4177 25.5873 20.3375 24.4883C19.2572 23.3893 18.6504 21.8988 18.6504 20.3445C18.6504 18.7903 19.2572 17.2998 20.3375 16.2008C21.4177 15.1018 22.8827 14.4844 24.4104 14.4844C25.938 14.4844 27.4031 15.1018 28.4833 16.2008C29.5635 17.2998 30.1704 18.7903 30.1704 20.3445Z" stroke="#FE316E" stroke-width="3" stroke-linecap="round" stroke-linejoin="round"/>
<path d="M38.802 20.3457C38.802 34.2969 24.402 42.3214 24.402 42.3214C24.402 42.3214 10.002 34.2969 10.002 20.3457C10.002 16.4602 11.5191 12.7338 14.2196 9.98631C16.9201 7.23882 20.5828 5.6953 24.402 5.6953C28.2211 5.6953 31.8838 7.23882 34.5843 9.98631C37.2848 12.7338 38.802 16.4602 38.802 20.3457Z" stroke="#FE316E" stroke-width="3" stroke-linecap="round" stroke-linejoin="round"/>
</svg>
