<svg width="48" height="48" viewBox="0 0 48 48" fill="none" xmlns="http://www.w3.org/2000/svg">
<path d="M24 48C37.2548 48 48 37.2548 48 24C48 10.7452 37.2548 0 24 0C10.7452 0 0 10.7452 0 24C0 37.2548 10.7452 48 24 48Z" fill="url(#paint0_radial_96_610)"/>
<path d="M13.0465 25.4806C14.0607 25.1321 15.265 24.9541 16.5767 25.219C17.8906 25.4844 19.2815 26.188 20.6758 27.5544C20.8462 27.7214 20.8489 27.9949 20.682 28.1652C20.515 28.3356 20.2415 28.3383 20.0711 28.1714C18.78 26.906 17.535 26.2937 16.4057 26.0656C15.2743 25.8371 14.2279 25.988 13.3273 26.2975C12.4244 26.6077 11.6745 27.0753 11.1483 27.4686C10.886 27.6646 10.6815 27.8405 10.5438 27.9661C10.4751 28.0288 10.4232 28.0788 10.3892 28.1123C10.3722 28.1291 10.3597 28.1418 10.3519 28.1498C10.3479 28.1538 10.3452 28.1567 10.3437 28.1584C10.3431 28.1589 10.3426 28.1592 10.3423 28.1595C10.1785 28.3328 9.90524 28.3406 9.73188 28.1768C9.55856 28.013 9.55087 27.7397 9.71465 27.5664L10.002 27.8378C9.71468 27.5663 9.71483 27.5661 9.71501 27.5659L9.71682 27.5641C9.71782 27.563 9.71908 27.5616 9.72067 27.56C9.72392 27.5566 9.72839 27.5519 9.73405 27.5461C9.74536 27.5345 9.7615 27.5183 9.78225 27.4978C9.82376 27.4568 9.88396 27.3989 9.96168 27.328C10.117 27.1863 10.3431 26.992 10.6311 26.7768C11.2053 26.3477 12.0346 25.8283 13.0465 25.4806Z" fill="white"/>
<path d="M30.6451 25.4806C31.6594 25.1321 32.8636 24.9541 34.1753 25.219C35.4892 25.4844 36.8801 26.188 38.2744 27.5544C38.4448 27.7214 38.4475 27.9949 38.2806 28.1652C38.1136 28.3356 37.8401 28.3383 37.6698 28.1714C36.3786 26.906 35.1337 26.2937 34.0044 26.0656C32.8729 25.8371 31.8265 25.988 30.9259 26.2975C30.023 26.6077 29.2731 27.0753 28.7469 27.4686C28.4846 27.6646 28.2801 27.8405 28.1425 27.9661C28.0737 28.0288 28.0218 28.0788 27.9878 28.1123C27.9709 28.1291 27.9583 28.1418 27.9505 28.1498C27.9466 28.1538 27.9439 28.1567 27.9423 28.1584C27.9418 28.1589 27.9412 28.1592 27.941 28.1595C27.7772 28.3328 27.5039 28.3406 27.3305 28.1768C27.1572 28.013 27.1495 27.7397 27.3133 27.5664L27.6007 27.8378C27.3133 27.5663 27.3135 27.5661 27.3136 27.5659L27.3155 27.5641C27.3165 27.563 27.3177 27.5616 27.3193 27.56C27.3226 27.5566 27.327 27.5519 27.3327 27.5461C27.344 27.5345 27.3601 27.5183 27.3809 27.4978C27.4224 27.4568 27.4826 27.3989 27.5603 27.328C27.7156 27.1863 27.9418 26.992 28.2297 26.7768C28.8039 26.3477 29.6332 25.8283 30.6451 25.4806Z" fill="white"/>
<path d="M20.5345 32.4248C20.5355 32.426 20.5373 32.4282 20.54 32.4313C20.5454 32.4376 20.5543 32.4479 20.5664 32.4615C20.5906 32.4888 20.6279 32.5298 20.6775 32.5814C20.7768 32.6848 20.9246 32.8298 21.1141 32.9914C21.4953 33.3164 22.0342 33.6989 22.6785 33.9515C23.3195 34.2028 24.0561 34.3226 24.8506 34.1395C25.6442 33.9566 26.5376 33.4618 27.4765 32.4119C27.6355 32.2341 27.9086 32.2188 28.0864 32.3778C28.2642 32.5368 28.2795 32.8098 28.1205 32.9876C27.0875 34.1428 26.0451 34.7506 25.0446 34.9812C24.0449 35.2116 23.1286 35.0558 22.3633 34.7558C21.6014 34.4571 20.9806 34.0126 20.5536 33.6486C20.339 33.4656 20.1705 33.3005 20.0546 33.1798C19.9966 33.1195 19.9516 33.07 19.9204 33.0349C19.9048 33.0173 19.8926 33.0033 19.884 32.9932C19.8797 32.9882 19.8763 32.9841 19.8738 32.9811C19.8725 32.9796 19.8714 32.9784 19.8706 32.9774C19.8702 32.9769 19.8698 32.9764 19.8695 32.9761C19.8694 32.9759 19.8692 32.9757 19.8692 32.9756C19.8699 32.9747 19.8866 32.9605 20.2014 32.6998L19.8688 32.9752C19.7167 32.7915 19.7422 32.5193 19.9259 32.3672C20.1095 32.2151 20.3814 32.2407 20.5336 32.4241C20.5338 32.4242 20.5342 32.4244 20.5345 32.4248Z" fill="white"/>
<defs>
<radialGradient id="paint0_radial_96_610" cx="0" cy="0" r="1" gradientUnits="userSpaceOnUse" gradientTransform="translate(23.837 23.25) rotate(48.8979) scale(23.0651)">
<stop stop-color="#FE316E"/>
<stop offset="1" stop-color="#FFD4E1"/>
</radialGradient>
</defs>
</svg>
