<svg width="74" height="105" viewBox="0 0 74 105" fill="none" xmlns="http://www.w3.org/2000/svg">
<path d="M37 0C57.4345 0 74 16.5452 74 36.9541C73.9999 42.6778 72.6969 48.0975 70.3711 52.9336H70.5L41.7305 102.513C39.8171 105.81 35.0657 105.839 33.1123 102.565L6.04199 57.1953C5.45367 56.2996 4.90278 55.3773 4.39258 54.4297L3.5 52.9336H3.62891C1.30308 48.0975 7.00521e-05 42.6778 0 36.9541C0 16.5452 16.5655 0 37 0Z" fill="#FE316E"/>
<path d="M38.5438 57.5771C37.571 57.5765 36.5995 57.5033 35.6376 57.3583C31.4247 56.6921 27.5575 54.631 24.6556 51.5051C21.7537 48.3793 19.9851 44.3698 19.6333 40.1192C19.2815 35.8685 20.3668 31.6228 22.7153 28.0624C25.0638 24.502 28.5395 21.8331 32.5855 20.4833C33.0185 20.3369 33.4839 20.3141 33.9292 20.4175C34.3745 20.5209 34.7821 20.7464 35.1063 21.0688C35.4578 21.4109 35.7072 21.844 35.8268 22.3196C35.9463 22.7953 35.9313 23.2949 35.7834 23.7625C35.2273 25.5693 34.9787 27.4567 35.048 29.3458C35.2058 32.3086 36.126 35.1805 37.7195 37.6833C39.3131 40.186 41.526 42.2348 44.1438 43.6313C46.5012 44.9715 49.1633 45.6839 51.8751 45.7C52.3472 45.7065 52.8086 45.8422 53.2092 46.0922C53.6098 46.3422 53.9343 46.6971 54.1476 47.1183C54.3609 47.5396 54.4549 48.0112 54.4194 48.4821C54.3838 48.953 54.2201 49.4051 53.9459 49.7896C52.1721 52.2077 49.8529 54.1731 47.1767 55.5263C44.5004 56.8794 41.5427 57.582 38.5438 57.5771ZM33.3771 22.4375C33.3311 22.4376 33.2853 22.4453 33.2417 22.4604C30.709 23.3009 28.4105 24.7274 26.5332 26.6239C24.6559 28.5204 23.2529 30.8333 22.4382 33.3745C21.6235 35.9156 21.4203 38.6132 21.845 41.2477C22.2697 43.8822 23.3103 46.3792 24.8823 48.5356C26.4542 50.692 28.513 52.4468 30.8912 53.6573C33.2693 54.8678 35.8997 55.4998 38.5682 55.5018C41.2367 55.5038 43.868 54.8758 46.248 53.6689C48.628 52.462 50.6895 50.7103 52.2646 48.5563C52.3151 48.4856 52.3444 48.4021 52.3492 48.3154C52.354 48.2287 52.334 48.1425 52.2917 48.0667C52.2545 47.9835 52.1944 47.9127 52.1184 47.8625C52.0424 47.8124 51.9536 47.7849 51.8626 47.7833C48.8034 47.7659 45.7997 46.9655 43.1376 45.4583C40.2034 43.8876 37.7249 41.5853 35.9425 38.7747C34.1601 35.964 33.1344 32.7405 32.9646 29.4167C32.8897 27.2959 33.1714 25.1775 33.798 23.15C33.8289 23.0472 33.8319 22.938 33.8067 22.8336C33.7814 22.7293 33.7288 22.6335 33.6542 22.5563C33.6188 22.5184 33.5758 22.4882 33.5282 22.4678C33.4805 22.4474 33.429 22.437 33.3771 22.4375Z" fill="white"/>
</svg>
