<svg width="74" height="105" viewBox="0 0 74 105" fill="none" xmlns="http://www.w3.org/2000/svg">
<path d="M37 0C57.4345 0 74 16.5452 74 36.9541C73.9999 42.6778 72.6969 48.0975 70.3711 52.9336H70.5L41.7305 102.513C39.8171 105.81 35.0657 105.839 33.1123 102.565L6.04199 57.1953C5.45367 56.2996 4.90278 55.3773 4.39258 54.4297L3.5 52.9336H3.62891C1.30308 48.0975 7.00521e-05 42.6778 0 36.9541C0 16.5452 16.5655 0 37 0Z" fill="#FE316E"/>
<path fill-rule="evenodd" clip-rule="evenodd" d="M30.7503 16.2501H28.667V27.9324C28.6672 28.6339 28.4099 29.311 27.9441 29.8355C25.727 32.3314 24.5018 35.5534 24.5003 38.8917V53.1845C24.5003 53.497 24.7535 53.7501 25.066 53.7501H34.3514C34.6639 53.7501 34.917 53.497 34.917 53.1845V38.8917C34.917 35.5532 33.692 32.3303 31.4743 29.8355C31.008 29.3112 30.7504 28.634 30.7503 27.9324V16.2501ZM30.7503 14.1667C31.3029 14.1667 31.8328 14.3862 32.2235 14.7769C32.6142 15.1676 32.8337 15.6975 32.8337 16.2501V27.9324C32.8337 28.124 32.9035 28.3074 33.0316 28.4511C35.5872 31.3286 36.9992 35.0432 37.0003 38.8917V53.1845C37.0003 53.887 36.7212 54.5608 36.2245 55.0576C35.7277 55.5543 35.0539 55.8334 34.3514 55.8334H25.066C24.7181 55.8334 24.3736 55.7649 24.0522 55.6318C23.7309 55.4987 23.4388 55.3035 23.1929 55.0576C22.9469 54.8116 22.7518 54.5196 22.6186 54.1982C22.4855 53.8768 22.417 53.5323 22.417 53.1845V38.8917C22.4181 35.0432 23.8301 31.3286 26.3857 28.4511C26.513 28.3083 26.5834 28.1237 26.5837 27.9324V16.2501C26.5837 15.6975 26.8032 15.1676 27.1939 14.7769C27.5846 14.3862 28.1145 14.1667 28.667 14.1667H30.7503Z" fill="white"/>
<path fill-rule="evenodd" clip-rule="evenodd" d="M34.917 41.2501H24.5003V47.5001H34.917V41.2501ZM22.417 39.1667V49.5834H37.0003V39.1667H22.417ZM42.2076 28.7501L41.3503 36.8209C41.2903 37.3799 41.3486 37.9453 41.5214 38.4803C41.6942 39.0152 41.9777 39.5079 42.3534 39.9261C42.7291 40.3443 43.1886 40.6788 43.7021 40.9078C44.2155 41.1367 44.7715 41.2551 45.3337 41.2551C45.8959 41.2551 46.4518 41.1367 46.9652 40.9078C47.4787 40.6788 47.9382 40.3443 48.3139 39.9261C48.6897 39.5079 48.9731 39.0152 49.146 38.4803C49.3188 37.9453 49.377 37.3799 49.317 36.8209L48.4597 28.7501H42.2076ZM50.3337 26.6667H40.3337L39.2785 36.6001C39.1878 37.4495 39.2769 38.3084 39.5399 39.1211C39.8029 39.9338 40.2339 40.6821 40.805 41.3173C41.3761 41.9526 42.0744 42.4606 42.8546 42.8083C43.6348 43.1561 44.4795 43.3358 45.3337 43.3358C46.1879 43.3358 47.0325 43.1561 47.8127 42.8083C48.5929 42.4606 49.2913 41.9526 49.8623 41.3173C50.4334 40.6821 50.8644 39.9338 51.1274 39.1211C51.3904 38.3084 51.4795 37.4495 51.3889 36.6001L50.3337 26.6667Z" fill="white"/>
<path fill-rule="evenodd" clip-rule="evenodd" d="M44.292 54.7917V42.2917H46.3753V54.7917H44.292Z" fill="white"/>
<path fill-rule="evenodd" clip-rule="evenodd" d="M40.125 54.7917C40.125 54.5154 40.2347 54.2504 40.4301 54.0551C40.6254 53.8597 40.8904 53.75 41.1667 53.75H49.5C49.7763 53.75 50.0412 53.8597 50.2366 54.0551C50.4319 54.2504 50.5417 54.5154 50.5417 54.7917C50.5417 55.0679 50.4319 55.3329 50.2366 55.5282C50.0412 55.7236 49.7763 55.8333 49.5 55.8333H41.1667C40.8904 55.8333 40.6254 55.7236 40.4301 55.5282C40.2347 55.3329 40.125 55.0679 40.125 54.7917ZM50.0208 37.0833H40.6458V35H50.0208V37.0833Z" fill="white"/>
</svg>
