<svg width="74" height="105" viewBox="0 0 74 105" fill="none" xmlns="http://www.w3.org/2000/svg">
<path d="M37 0C57.4345 0 74 16.5452 74 36.9541C73.9999 42.6778 72.6969 48.0975 70.3711 52.9336H70.5L41.7305 102.513C39.8171 105.81 35.0657 105.839 33.1123 102.565L6.04199 57.1953C5.45367 56.2996 4.90278 55.3773 4.39258 54.4297L3.5 52.9336H3.62891C1.30308 48.0975 7.00521e-05 42.6778 0 36.9541C0 16.5452 16.5655 0 37 0Z" fill="#FE316E"/>
<path d="M25.5417 20.2501C24.0597 20.2501 22.8208 21.0779 21.825 22.7334C20.8306 24.3904 20.3333 26.3404 20.3333 28.5834C20.3333 30.5834 20.6569 32.5591 21.3042 34.5105C21.9528 36.4619 22.7514 38.0813 23.7 39.3688L28.1854 38.2647C28.691 37.1536 29.2444 35.6786 29.8458 33.8397C30.4486 32.0022 30.75 30.2501 30.75 28.5834C30.75 26.339 30.2528 24.389 29.2583 22.7334C28.2625 21.0779 27.0236 20.2501 25.5417 20.2501ZM28.4062 47.3334C29.0924 47.3334 29.6549 47.0765 30.0938 46.5626C30.5313 46.0515 30.75 45.3883 30.75 44.573C30.75 43.9827 30.591 43.3084 30.2729 42.5501C29.9549 41.7918 29.5236 41.0091 28.9792 40.2022L24.5 41.3251C24.5 43.1404 24.8375 44.5959 25.5125 45.6917C26.1847 46.7862 27.1493 47.3334 28.4062 47.3334ZM48.4583 30.6667C46.9764 30.6667 45.7375 31.4945 44.7417 33.1501C43.7472 34.807 43.25 36.757 43.25 39.0001C43.25 40.6667 43.5576 42.4098 44.1729 44.2293C44.7896 46.0501 45.3368 47.5334 45.8146 48.6793L50.1417 50.0251C51.3833 48.0973 52.2812 46.3133 52.8354 44.673C53.3896 43.0327 53.6667 41.1417 53.6667 39.0001C53.6667 36.7556 53.1694 34.8056 52.175 33.1501C51.1792 31.4945 49.9403 30.6667 48.4583 30.6667ZM45.5937 57.7501C46.7951 57.7501 47.7465 57.2154 48.4479 56.1459C49.1493 55.0765 49.5 53.7015 49.5 52.0209L45.0625 50.5793C44.7028 51.2251 44.3111 51.9334 43.8875 52.7042C43.4639 53.4751 43.2514 54.2376 43.25 54.9918C43.25 55.714 43.4806 56.3543 43.9417 56.9126C44.4014 57.4723 44.9521 57.7501 45.5937 57.7501ZM28.4062 49.4188C26.534 49.4188 25.0569 48.6827 23.975 47.2105C22.8931 45.7383 22.3736 43.8765 22.4167 41.6251L21.1583 39.2959C20.4556 38.1987 19.7958 36.6619 19.1792 34.6855C18.5597 32.7091 18.25 30.6751 18.25 28.5834C18.25 25.5945 18.9417 23.1112 20.325 21.1334C21.7083 19.1556 23.4472 18.1667 25.5417 18.1667C27.6653 18.1667 29.4118 19.1973 30.7813 21.2584C32.1493 23.3181 32.8333 25.7598 32.8333 28.5834C32.8333 30.4112 32.5486 32.2223 31.9792 34.0167C31.4097 35.8112 30.8639 37.2959 30.3417 38.4709L31.2792 40.0293C31.6903 40.7029 32.0521 41.4556 32.3646 42.2876C32.6771 43.1195 32.8333 43.8813 32.8333 44.573C32.8333 45.9647 32.4174 47.1202 31.5854 48.0397C30.7535 48.9591 29.6937 49.4202 28.4062 49.4188ZM45.5937 59.8334C44.3062 59.8334 43.2465 59.3737 42.4146 58.4542C41.5826 57.5348 41.1667 56.3806 41.1667 54.9918C41.1667 54.3001 41.3229 53.5383 41.6354 52.7063C41.9479 51.873 42.3097 51.1202 42.7208 50.448L43.6583 48.8897C43.1611 47.7411 42.6215 46.2626 42.0396 44.4543C41.4576 42.6459 41.1667 40.8279 41.1667 39.0001C41.1667 36.1765 41.8514 33.7348 43.2208 31.6751C44.5875 29.614 46.3333 28.5834 48.4583 28.5834C50.5528 28.5834 52.2917 29.5723 53.675 31.5501C55.0583 33.5279 55.75 36.0112 55.75 39.0001C55.75 41.0917 55.4472 43.1105 54.8417 45.0563C54.2375 47.0008 53.5708 48.5494 52.8417 49.7022L51.5833 51.6813C51.5917 53.5313 51.15 55.3529 50.2583 57.1459C49.3681 58.9376 47.8132 59.8334 45.5937 59.8334Z" fill="white"/>
</svg>
