<svg width="1373" height="1124" viewBox="0 0 1373 1124" fill="none" xmlns="http://www.w3.org/2000/svg">
<path d="M0.588968 1123.98C16.0884 1123.85 31.5878 1123.71 47.0872 1123.58C52.5858 1078.41 77.3655 1033.36 107.54 996.767C201.698 882.569 354.278 847.318 500.02 864.284C551.813 869.684 603.745 874.137 655.927 877.362C752.885 883.171 850.716 887.208 950.528 882.544C1001.23 879.635 1051.08 876.187 1107.17 860.435C1134.48 850.631 1168.18 845.067 1201.84 798.941C1218.29 775.158 1220.89 738.957 1213.93 716.626C1207.24 692.863 1197.85 678.754 1187.78 664.665C1085.07 555.718 980.506 553.123 881.069 524.439C831.117 512.967 781.352 503.08 733.797 492.144C710.189 486.659 686.669 480.853 666.367 473.979C656.649 470.753 646.812 466.393 643.882 464.5C643.183 464.098 643.153 464.005 644.077 464.971C645.147 466.23 647.058 467.891 649.771 473.94C652.324 479.544 653.568 488.733 651.992 495.808C650.475 502.878 648.236 505.966 646.927 507.834C652.759 491.883 719.376 477.835 773.781 478.879C831.58 478.113 889.188 484.776 954.919 487.057C973.704 487.327 1000.39 484.985 1023.81 464.758C1046.76 444.164 1051.95 419.428 1054.94 403.183C1057.73 386.313 1058.26 372.407 1059.77 363.351C1060.4 358.956 1061.49 356.118 1060.92 357.023C1060.61 357.435 1059.63 358.833 1057.87 360.263C1056.14 361.71 1053.85 362.847 1052.35 363.258C1104.22 344.756 1170.4 341.216 1230.84 348.447C1270.55 350.538 1303.52 359.09 1355.04 323.332C1361.67 317.186 1369.51 306.768 1371.68 292.973C1373.95 279.238 1369.65 266.806 1365.37 259.243C1356.27 243.775 1347.07 237.385 1338.4 230.866C1321.44 218.982 1304.78 211.408 1288.5 204.561C1249.92 188.605 1209.42 168.918 1192.48 143.846C1171.39 117.893 1196.49 68.8782 1227.38 29.5639C1215.42 19.7093 1203.46 9.85468 1191.49 8.39233e-05C1173.12 21.2146 1155.57 43.3743 1142.54 71.8505C1129.24 98.9267 1124.48 141.405 1144.07 172.959C1176.18 223.371 1221.53 242.246 1262.34 263.273C1275.81 269.775 1289.3 277.302 1298.34 284.613C1302.85 288.057 1306.18 292.566 1305.11 291.577C1304.69 291.111 1302.72 287.157 1303.57 281.49C1304.41 275.814 1307.38 272.529 1307.92 271.926C1309.25 270.771 1304.81 273.324 1299.84 274.35C1294.7 275.602 1288.46 276.47 1282.01 276.871C1269.05 277.676 1255.17 276.767 1242.02 274.36C1170.91 262.793 1100.01 261.005 1024.64 283.239C1008.54 288.072 992.889 302.574 986.243 315.179C979.134 327.851 976.781 338.166 974.831 346.928C971.329 364.286 970.345 377.328 968.158 386.866C967.148 391.539 965.923 395.069 965.065 396.627C964.644 397.416 964.358 397.693 964.352 397.574C964.336 397.462 964.634 396.965 965.08 396.492C965.522 396.01 966.069 395.597 966.295 395.413C966.531 395.22 966.437 395.225 965.869 395.289C964.742 395.433 961.974 395.644 958.127 395.356C902.476 391.197 838.805 381.528 774.716 379.954C711.398 383.308 637.419 365.267 561.357 446.637C555.904 454.415 551.233 462.384 548.391 475.873C545.589 489.307 547.623 504.601 552.713 516.048C563.357 538.634 575.074 545.668 584.274 552.617C601.953 564.451 616.139 569.786 629.858 575.12C657.329 585.294 682.455 592.04 707.55 598.661C757.555 611.621 806.507 622.641 854.415 634.857C945.676 658.061 1057.18 690.833 1091.14 734.986C1095.76 741.343 1097.93 746.748 1097.78 747.005C1097.75 747.066 1097.23 745.328 1097.57 742.202C1097.83 739.208 1099.3 735.419 1100.45 733.697C1103.1 729.991 1101.28 732.95 1095.8 735.505C1090.47 738.232 1082.34 741.25 1073.4 743.746C1036.65 753.847 990.563 757.786 944.862 759.795C853.383 763.4 758.064 759.301 663.568 753.598C612.611 750.449 561.537 747.04 510.331 743.643C338.728 727.943 137.495 795.975 46.3607 954.429C16.8463 1005.16 -3.80242 1062.3 0.588968 1123.98Z" fill="url(#paint0_linear_133_1709)"/>
<defs>
<linearGradient id="paint0_linear_133_1709" x1="1337.83" y1="-109.375" x2="-3.23021" y2="1035.76" gradientUnits="userSpaceOnUse">
<stop stop-color="white"/>
<stop offset="0.467975" stop-color="#FE6794"/>
<stop offset="1" stop-color="#FE316E"/>
</linearGradient>
</defs>
</svg>
