<svg width="1373" height="1145" viewBox="0 0 1373 1145" fill="none" xmlns="http://www.w3.org/2000/svg">
<path d="M0.61702 1144.81C16.1165 1144.68 31.6159 1144.55 47.1153 1144.42C52.6071 1098.74 76.9381 1053.26 106.818 1015.91C200.091 899.137 353.28 861.629 499.949 879.082C551.482 884.525 603.185 889.028 655.085 892.304C752.455 898.26 850.713 902.42 951.044 897.626C1001.99 894.625 1052.09 891.118 1108.58 874.77C1135.91 864.71 1170.58 858.396 1203.21 810.85C1218.91 786.454 1220.57 751.524 1213.84 729.587C1207.27 706.27 1198.06 692.042 1188.12 677.901C1086.43 567.635 980.961 564.201 881.41 535.038C831.333 523.304 781.446 513.194 733.81 502.009C710.167 496.401 686.604 490.456 666.385 483.445C656.764 480.183 646.927 475.692 644.224 473.878C643.9 473.682 643.759 473.594 643.808 473.665C643.832 473.701 643.903 473.777 644.021 473.901C644.081 473.964 644.147 474.034 644.236 474.128C644.336 474.232 644.452 474.356 644.584 474.501C645.666 475.801 647.639 477.686 650.145 483.644C652.521 489.195 653.532 497.962 652.023 504.637C650.584 511.266 648.473 514.278 647.239 516.056C653.076 499.759 719.093 485.551 773.607 486.595C831.411 485.826 889.01 492.648 954.915 495.014C973.98 495.361 1001.58 492.649 1024.83 471.65C1047.46 450.412 1052.13 426.048 1055.1 409.721C1057.81 392.821 1058.34 378.782 1059.87 369.474C1060.5 364.956 1061.61 361.926 1061.15 362.65C1060.89 362.975 1059.98 364.314 1058.25 365.761C1056.55 367.222 1054.2 368.431 1052.62 368.878C1104.24 350.129 1170.42 346.53 1230.75 353.934C1250.2 356.453 1269.46 356.757 1289.34 354.396C1309.5 350.829 1328.96 350.681 1355.96 327.751C1362.51 321.449 1370.1 310.579 1371.9 297.045C1373.84 283.561 1369.68 271.595 1365.47 264.015C1356.56 248.684 1347.37 242.061 1338.73 235.455C1321.79 223.347 1305.08 215.59 1288.75 208.587C1249.57 192.056 1208.5 171.603 1192.05 145.603C1171.76 118.511 1196.93 69.0047 1227.55 29.2328C1215.49 19.4886 1203.44 9.74433 1191.39 7.62939e-05C1173.12 21.4678 1155.76 43.8673 1142.82 72.3429C1129.73 99.5607 1124.27 140.996 1142.82 173.315C1174.26 225.83 1220.77 245.492 1262.14 267.215C1275.62 273.837 1289.09 281.495 1298.1 288.918C1302.61 292.436 1305.91 296.925 1304.97 296.154C1304.62 295.774 1302.8 292.242 1303.48 286.895C1304.13 281.529 1306.99 278.034 1307.6 277.366C1309.08 276.029 1304.81 278.636 1299.88 279.685C1294.82 280.965 1288.59 281.866 1282.15 282.286C1269.22 283.131 1255.31 282.221 1242.16 279.776C1170.96 268.013 1099.88 266.244 1024.42 288.971C1007.98 294.027 992.485 308.929 986 321.527C979.044 334.215 976.732 344.514 974.804 353.319C971.338 370.761 970.347 383.992 968.158 393.837C967.142 398.664 965.907 402.398 964.979 404.184C964.524 405.089 964.186 405.477 964.121 405.441C964.048 405.413 964.283 404.963 964.708 404.491C965.125 404.013 965.693 403.562 965.972 403.348C966.257 403.123 966.238 403.104 965.728 403.159C964.733 403.281 962.016 403.509 958.188 403.217C902.566 399.011 838.775 389.17 774.535 387.606C711.254 390.888 636.123 373.345 561.102 455.598C555.773 463.315 551.235 471.301 548.462 484.315C545.698 497.372 547.409 512.286 552.195 523.722C562.332 546.547 574.2 554.068 583.311 561.138C601.085 573.404 615.439 578.901 629.128 584.346C656.697 594.777 681.906 601.667 707.072 608.43C757.221 621.664 806.277 632.897 854.273 645.355C945.772 669.031 1057.07 702.407 1090.86 747.362C1095.48 753.866 1097.73 759.379 1097.73 760.139C1097.77 760.444 1097.3 759.125 1097.54 756.373C1097.71 753.77 1098.96 750.185 1100.04 748.446C1101.16 746.549 1101.69 746.292 1100.97 746.833C1100.28 747.369 1098.46 748.622 1095.86 749.98C1090.67 752.736 1082.75 755.792 1073.81 758.373C1037.3 768.74 991.043 772.814 945.232 774.883C853.45 778.603 757.745 774.397 662.889 768.55C612.227 765.352 561.394 761.877 510.458 758.402C337.119 741.827 134.105 813.649 45.059 974.422C16.094 1025.78 -3.81279 1083.14 0.61702 1144.81Z" fill="url(#paint0_linear_133_1738)"/>
<defs>
<linearGradient id="paint0_linear_133_1738" x1="1269.68" y1="79.6342" x2="245.838" y2="859.117" gradientUnits="userSpaceOnUse">
<stop stop-color="white"/>
<stop offset="0.480852" stop-color="#FEA5BF"/>
<stop offset="1" stop-color="#FEA2BD"/>
</linearGradient>
</defs>
</svg>
