<svg width="40" height="40" viewBox="0 0 40 40" fill="none" xmlns="http://www.w3.org/2000/svg">
<path d="M36.9122 16.8367L24.4122 4.33668C24.2811 4.20573 24.1141 4.11657 23.9323 4.08047C23.7506 4.04436 23.5622 4.06293 23.391 4.13382C23.2198 4.20471 23.0735 4.32474 22.9704 4.47876C22.8674 4.63278 22.8123 4.81388 22.8122 4.99918V11.5929C14.2997 12.1539 4.00123 20.1867 2.82311 30.4461C2.78485 30.7727 2.85065 31.1032 3.01115 31.3903C3.17165 31.6774 3.41866 31.9065 3.71699 32.045C4.01532 32.1835 4.34975 32.2244 4.67265 32.1617C4.99554 32.099 5.29043 31.9361 5.5153 31.6961C7.27467 29.8195 13.5934 23.8429 22.8122 23.457V29.9992C22.8123 30.1845 22.8674 30.3656 22.9704 30.5196C23.0735 30.6736 23.2198 30.7936 23.391 30.8645C23.5622 30.9354 23.7506 30.954 23.9323 30.9179C24.1141 30.8818 24.2811 30.7926 24.4122 30.6617L36.9122 18.1617C37.0877 17.9859 37.1863 17.7476 37.1863 17.4992C37.1863 17.2507 37.0877 17.0125 36.9122 16.8367ZM24.6872 27.7367V22.4992C24.6872 22.2505 24.5884 22.0121 24.4126 21.8363C24.2368 21.6604 23.9983 21.5617 23.7497 21.5617C19.4169 21.5617 15.1934 22.6945 11.1997 24.9289C8.87192 26.2365 6.72773 27.8469 4.82311 29.7179C5.55748 25.5679 7.97311 21.5929 11.6981 18.4257C15.3856 15.3023 19.8887 13.4367 23.7497 13.4367C23.9983 13.4367 24.2368 13.3379 24.4126 13.1621C24.5884 12.9863 24.6872 12.7478 24.6872 12.4992V7.26324L34.9231 17.4992L24.6872 27.7367Z" fill="white"/>
</svg>
